<?xml version="1.0" standalone="no"?>
<!DOCTYPE svg PUBLIC "-//W3C//DTD SVG 20010904//EN"
 "http://www.w3.org/TR/2001/REC-SVG-20010904/DTD/svg10.dtd">
<svg version="1.0" xmlns="http://www.w3.org/2000/svg"
 width="700.000000pt" height="700.000000pt" viewBox="0 0 700.000000 700.000000"
 preserveAspectRatio="xMidYMid meet">
<g transform="translate(0.000000,700.000000) scale(0.100000,-0.100000)"
fill="#000000" stroke="none">
<path d="M0 3500 l0 -3500 3500 0 3500 0 0 3500 0 3500 -3500 0 -3500 0 0
-3500z m1470 390 c133 -319 264 -644 289 -722 33 -99 52 -144 64 -146 12 -3
25 27 61 140 27 84 148 382 294 723 l247 580 342 3 341 2 -26 -99 c-22 -79
-109 -270 -442 -970 l-415 -871 -400 0 -401 0 -344 748 c-189 411 -390 847
-446 970 l-102 222 347 0 348 0 243 -580z m3930 570 c90 -11 186 -35 194 -48
3 -5 -18 -101 -46 -215 -42 -176 -52 -207 -66 -203 -46 13 -488 28 -879 29
-482 2 -490 1 -520 -57 -22 -42 -21 -137 1 -171 38 -59 43 -59 616 -66 537 -6
556 -8 685 -50 117 -38 206 -128 246 -249 30 -89 39 -396 15 -509 -21 -100
-65 -190 -123 -252 -56 -60 -117 -93 -221 -120 -71 -18 -117 -19 -863 -19
-512 0 -815 4 -866 11 -84 12 -143 32 -143 48 0 27 196 431 207 427 41 -16
411 -30 818 -30 431 -1 473 0 502 17 43 23 63 64 63 127 0 68 -21 115 -62 137
-30 16 -77 18 -573 24 -474 5 -548 8 -605 23 -190 52 -291 148 -337 319 -22
81 -25 375 -4 457 48 195 177 321 373 364 79 18 1452 22 1588 6z m-2259 -1399
c98 -37 131 -92 137 -229 7 -145 -34 -225 -140 -273 -47 -21 -67 -24 -188 -24
-120 0 -141 3 -185 23 -106 49 -145 118 -145 257 0 146 42 213 155 249 81 25
85 25 200 22 82 -3 124 -9 166 -25z m3114 18 c152 -28 210 -102 210 -269 0
-130 -40 -201 -143 -251 -42 -21 -61 -24 -187 -24 -133 0 -143 1 -197 28 -102
50 -146 141 -135 282 13 170 105 239 323 244 39 0 97 -4 129 -10z"/>
</g>
</svg>
